<svg xmlns="http://www.w3.org/2000/svg" width="24" height="24" viewBox="0 0 24 24">
  <metadata><?xpacket begin="﻿" id="W5M0MpCehiHzreSzNTczkc9d"?>
<x:xmpmeta xmlns:x="adobe:ns:meta/" x:xmptk="Adobe XMP Core 5.6-c138 79.159824, 2016/09/14-01:09:01        ">
   <rdf:RDF xmlns:rdf="http://www.w3.org/1999/02/22-rdf-syntax-ns#">
      <rdf:Description rdf:about=""/>
   </rdf:RDF>
</x:xmpmeta>
                                                                                                    
                                                                                                    
                                                                                                    
                                                                                                    
                                                                                                    
                                                                                                    
                                                                                                    
                                                                                                    
                                                                                                    
                                                                                                    
                                                                                                    
                                                                                                    
                                                                                                    
                                                                                                    
                                                                                                    
                                                                                                    
                                                                                                    
                                                                                                    
                                                                                                    
                                                                                                    
                           
<?xpacket end="w"?></metadata>
<defs>
    <style>
      .cls-1 {
        fill: #21d3ff;
        fill-rule: evenodd;
      }
    </style>
  </defs>
  <path id="Самолет" class="cls-1" d="M666.232,52.512l-0.453.711-0.729-.464,0.453-.712Zm14.809,13.363,1.537-1.537-2.088-2.089-0.407.407-1.5-5.059,2.331-2.33a3.029,3.029,0,0,0,.369-0.45l1.311-1.968a2.48,2.48,0,0,0-3.44-3.439l-1.967,1.311a3,3,0,0,0-.45.369l-2.33,2.33-5.059-1.5,0.407-.407-2.089-2.088-1.537,1.537-2.76-.82L661.7,51.808l0.622,0.622,7.675,5.4-2.362,2.362a10.5,10.5,0,0,0-1.823,2.464l-5.152-.86-1.645,1.645,0.633,0.634,4.185,2.51L663.271,67.7l1.026,1.026,1.116-.558,2.484,4.14,0.66,0.678,1.646-1.645-0.86-5.152a10.532,10.532,0,0,0,2.465-1.823l2.361-2.362,5.38,7.644,0.643,0.653,1.669-1.669Zm-13.379-15.26,0.895,0.9-0.133.133-1.379-.41Zm4.118,5.429-4.819-3.067-0.453.712,4.661,2.966-0.571.57-7.7-5.421,0.713-.713L673.725,54.1Zm-11.566,7.39,0.732-.732,4.454,0.743-1.193,2.386Zm4.25,4.269-0.167-.167,2.113-4.225a9.682,9.682,0,0,1,1.818-2.522l9.1-9.1a2.125,2.125,0,0,1,.321-0.263l1.967-1.311a1.637,1.637,0,0,1,2.27,2.269l-1.311,1.967a2.1,2.1,0,0,1-.264.322l-9.1,9.1a9.687,9.687,0,0,1-2.522,1.817Zm4.835,3.352-0.732.732-2.4-3.993,2.386-1.193Zm11.191-7.612,0.895,0.9-0.618.618-0.41-1.38ZM680.2,69.106l-5.421-7.7,0.57-.57,2.966,4.661,0.712-.453-3.067-4.819,1.945-1.945,3.008,10.118Zm-0.707-3.338,0.464,0.729-0.712.453-0.464-.729Z" transform="translate(-659 -49)"/>
</svg>
